# xmcd CD database file
#
# Track frame offsets:
#	182
#	11390
#	28732
#	41840
#	51457
#	63835
#	76145
#	86992
#	103350
#	118130
#	132405
#	145795
#	158270
#	169450
#	183222
#	196435
#	207000
#	218450
#	229297
#	242545
#
# Disc length: 3463 seconds
#
# Revision: 2
# Processed by: cddbd v1.5.1PL0 Copyright (c) Steve Scherf et al.
# Submitted via: CDex 1.51
#
DISCID=160d8514
DTITLE=Varios - 40 Boleros de Siempre
DYEAR=1900
DGENRE=Boleros
TTITLE0=El Almanaque - Grupo Farallones
TTITLE1=Tu lo mejor de todo - Grupo vino blanco
TTITLE2=A Quien? - Rene Cabell
TTITLE3=Nosotros - Soledad Bravo
TTITLE4=Bendicion Celestial - Los Romanceros
TTITLE5=Mira que eres linda - Lucho Ramirez
TTITLE6=Novia mia - Trio Ecuador
TTITLE7=Locura Mia - Trio los Romanticos
TTITLE8=Risque - Alberto Granados
TTITLE9=Piensa en mi - Duo Perez Rodriguez
TTITLE10=Te extraño - Betty Missiego
TTITLE11=Sabre esperar - Dueto Contraste
TTITLE12=No tengas miedo de amar - Trio Martino
TTITLE13=Sed de oro - Tony Dellmar y orquesta
TTITLE14=Ya que te vas - Victor Hugo Ayala
TTITLE15=Ya lo sabes - Los montalvinos
TTITLE16=No me lo pidas - Dione Restrepo
TTITLE17=Quisiera - Los Romanceros
TTITLE18=Espinita - Los Embajadores
TTITLE19=Dos Almas \ Deuda \ Somos - Leo Marini
EXTD=
EXTT0=
EXTT1=
EXTT2=
EXTT3=
EXTT4=
EXTT5=
EXTT6=
EXTT7=
EXTT8=
EXTT9=
EXTT10=
EXTT11=
EXTT12=
EXTT13=
EXTT14=
EXTT15=
EXTT16=
EXTT17=
EXTT18=
EXTT19=
PLAYORDER=
